<?xml version="1.0" encoding="utf-8"?>
<!-- Generator: Adobe Illustrator 23.0.1, SVG Export Plug-In . SVG Version: 6.00 Build 0)  -->
<svg version="1.1" id="Capa_1" xmlns="http://www.w3.org/2000/svg" xmlns:xlink="http://www.w3.org/1999/xlink" x="0px" y="0px"
	 viewBox="0 0 438.5 438.5" style="enable-background:new 0 0 438.5 438.5;" xml:space="preserve">
<style type="text/css">
	.st0{fill:#FFFFFF;}
</style>
<path class="st0" d="M219.8,22.4c115.1,0,199.5,81.1,199.5,196.8s-87.2,209.4-202.2,209.4c-107.7,0-203.7-93.7-203.7-209.4
	S104.7,22.4,219.8,22.4z"/>
<g>
	<path d="M400,114.6c-18.7-32-44-57.3-76-76s-66.9-28-104.8-28s-72.8,9.3-104.8,28s-57.3,44-76,76s-28,66.9-28,104.8
		c0,45.5,13.3,86.4,39.8,122.7s60.8,61.5,102.9,75.4c4.9,0.9,8.5,0.3,10.9-1.9c2.4-2.2,3.5-4.9,3.5-8.2c0-0.5,0-5.4-0.1-14.7
		c-0.1-9.2-0.1-17.3-0.1-24.2l-6.3,1.1c-4,0.7-9,1-15.1,1c-6.1-0.1-12.4-0.7-18.9-1.9c-6.5-1.2-12.6-3.9-18.2-8.1
		c-5.6-4.3-9.6-9.8-12-16.7l-2.7-6.3c-1.8-4.2-4.7-8.8-8.6-13.9s-7.8-8.5-11.8-10.3l-1.9-1.4c-1.3-0.9-2.4-2-3.5-3.3
		s-1.9-2.5-2.4-3.8s-0.1-2.3,1.4-3.1c1.5-0.8,4.1-1.2,7.9-1.2l5.4,0.8c3.6,0.7,8.1,2.9,13.5,6.5c5.3,3.6,9.7,8.3,13.2,14.1
		c4.2,7.4,9.2,13.1,15.1,17s11.8,5.8,17.8,5.8s11.1-0.5,15.5-1.4c4.3-0.9,8.4-2.3,12.2-4.1c1.6-12.1,6.1-21.5,13.3-28
		c-10.3-1.1-19.6-2.7-27.9-4.9c-8.2-2.2-16.8-5.7-25.5-10.6c-8.8-4.9-16.1-11-21.9-18.2s-10.6-16.8-14.3-28.5
		c-3.7-11.8-5.6-25.4-5.6-40.8c0-21.9,7.2-40.6,21.5-56c-6.7-16.5-6.1-35,1.9-55.4c5.3-1.6,13-0.4,23.4,3.7
		c10.3,4.1,17.9,7.6,22.7,10.5s8.7,5.3,11.6,7.3c16.9-4.7,34.2-7.1,52.2-7.1s35.3,2.4,52.2,7.1l10.3-6.5c7.1-4.4,15.4-8.3,25-12
		c9.6-3.6,16.9-4.6,22-3c8.2,20.5,8.9,39,2.2,55.4c14.3,15.4,21.5,34.1,21.5,56c0,15.4-1.9,29-5.6,40.9
		c-3.7,11.9-8.5,21.4-14.4,28.5c-5.9,7.2-13.2,13.2-22,18.1s-17.3,8.4-25.5,10.6s-17.5,3.8-27.9,4.9c9.4,8.2,14.1,21,14.1,38.6v57.3
		c0,3.3,1.1,6,3.4,8.2s5.8,2.8,10.7,1.9c42-13.9,76.3-39.1,102.9-75.4c26.5-36.3,39.8-77.2,39.8-122.7
		C428,181.5,418.7,146.6,400,114.6z"/>
</g>
</svg>
